<svg width="361" height="100" viewBox="0 0 361 100" fill="none" xmlns="http://www.w3.org/2000/svg">
<mask id="mask0_472_2612" style="mask-type:alpha" maskUnits="userSpaceOnUse" x="8" y="7" width="130" height="62">
<path d="M29.7936 41.3391C28.4561 41.705 26.9204 42.7793 25.5865 42.5215C25.554 42.3917 25.5216 42.2601 25.4891 42.1304C25.0547 41.6347 26.2985 41.1264 25.9866 40.6234C29.5124 39.4572 32.3947 38.1323 35.4067 36.7624C38.0078 35.5781 40.7927 34.6895 43.1396 33.4115C45.0539 32.6436 46.9682 31.8757 48.8825 31.1097C53.944 28.9574 58.9947 27.072 64.4672 24.8873C68.0128 23.4705 70.886 22.5098 74.5001 21.1506C75.7547 20.6784 77.9952 19.6545 78.9253 19.6816C81.1821 18.8019 82.4367 18.4378 84.7692 17.4915C86.2545 17.0463 87.7415 16.5992 89.2268 16.154C90.9483 15.4907 93.6412 14.6561 94.9265 14.5534C94.9787 14.0721 96.181 14 96.6028 13.9982C96.5469 13.9657 96.4893 13.9333 96.4334 13.9026C97.0444 13.7314 98.3278 13.2772 98.6901 13.342C98.4017 13.4448 98.1115 13.5475 97.8231 13.6503C98.3441 13.5061 98.865 13.3601 99.3841 13.2159L99.3901 13.2242C99.4795 13.3493 99.4798 13.3497 99.8167 13.2014C100.359 13.1672 100.842 12.9815 101.106 12.8355C101.14 12.8734 101.172 12.9112 101.206 12.9491C100.942 13.0933 101.19 12.9617 101.113 13.1564C100.911 13.2213 100.709 13.288 100.509 13.3529C100.691 13.4105 100.696 13.3727 100.837 13.5025C99.9718 13.9171 99.1065 14.3316 98.2431 14.7462C97.5762 15.0833 96.6695 15.1157 96.0873 15.4204C95.0869 15.9431 93.89 16.4316 92.7039 16.9976C92.0965 17.1796 91.4872 17.3617 90.8798 17.5438C87.19 19.0074 83.1198 20.2115 79.4337 21.7238C72.1172 24.7233 63.8471 27.7479 56.4279 30.8032L56.4387 30.8465C59.1984 29.8389 62.3186 28.5915 64.9665 27.4829C67.4846 26.4303 69.8928 25.7183 72.1244 24.7377C74.1396 23.9914 76.1566 23.2434 78.1737 22.4971C78.5973 22.2448 78.9362 22.2952 79.4517 22.088C81.0343 21.4517 83.2821 20.6405 84.771 20.1214C84.7259 20.0421 84.6772 20.1232 84.7493 20.0349L89.8163 18.2233C93.2771 16.7741 96.7001 15.5916 100.749 14.31C102.605 13.7206 105.608 12.1686 107.308 12.0821C108.325 11.6801 109.468 11.1231 110.378 10.9969C110.727 10.8491 111.079 10.6995 111.429 10.5517C112.386 10.1804 118.949 8.15435 119.773 8.20301C119.715 8.2643 119.657 8.32378 119.6 8.38507C119.717 8.37065 119.834 8.35803 119.953 8.34361C120.018 8.24808 120.016 8.20662 120.115 8.11829C120.205 8.1904 120.256 8.10928 120.501 8.20662C120.459 8.23185 120.416 8.25889 120.375 8.28413C120.488 8.25529 120.602 8.22825 120.717 8.19941L120.706 8.15615C120.548 8.11289 120.658 8.16696 120.537 8.06061C120.56 8.05521 120.582 8.0498 120.605 8.04439C120.885 8.05701 120.937 8.03177 121.299 7.91821C121.269 7.98671 121.236 8.05701 121.206 8.1255C121.487 8.08224 121.409 8.07323 121.57 8.12731C121.325 8.194 121.46 8.14533 121.386 8.2643C121.503 8.24988 121.62 8.23726 121.739 8.22284C121.723 8.25709 121.709 8.29134 121.692 8.32739C121.339 8.46078 120.984 8.59597 120.631 8.72935L120.701 8.74235C120.855 8.77049 121.009 8.79882 121.162 8.82849C121.117 8.83931 121.07 8.85193 121.025 8.86274C120.805 8.95467 120.805 8.94205 120.604 8.92042L120.658 9.13673C120.802 9.13132 120.946 9.12591 121.09 9.12231C120.71 9.25209 120.358 9.49003 120.083 9.74058C120.357 9.67208 120.629 9.60539 120.903 9.53689C120.887 9.57114 120.872 9.60539 120.856 9.64144C119.839 9.91903 119.495 11.1574 118.262 11.7612C117.651 12.0604 115.876 12.6174 115.647 12.9184C115.861 12.8355 116.099 12.8103 116.351 12.8355L116.236 12.9563C115.908 13.0554 113.907 13.9369 113.94 13.9423C113.608 14.1135 112.844 14.146 112.299 14.3497L112.31 14.3929C112.472 14.3677 112.636 14.3425 112.799 14.3172C111.708 14.5822 110.277 15.1013 109.877 15.4114C109.749 15.5646 109.808 15.424 109.851 15.6024C108.09 16.2081 106.329 16.8155 104.568 17.4212L104.525 17.2481L103.589 17.5726L103.611 17.6591C103.838 17.6032 104.067 17.5456 104.294 17.4897C104.278 17.5239 104.264 17.5582 104.247 17.5942C103.831 17.7565 102.05 18.2305 101.736 18.5874C101.969 18.5027 101.933 18.5225 102.158 18.5297C102.104 18.6055 102.05 18.6794 101.996 18.7551C102.319 18.6433 102.627 18.5838 102.841 18.3603L102.831 18.317C102.416 18.4252 102.6 18.4991 102.409 18.3747C102.519 18.3315 102.629 18.29 102.74 18.2467C102.789 18.2504 102.84 18.254 102.888 18.2558C102.913 18.3567 102.939 18.4576 102.964 18.5604C103.247 18.4108 103.454 18.4847 103.842 18.2954C103.651 18.2936 103.409 18.3495 103.263 18.3008C103.519 18.2666 104.031 18.162 104.484 17.9511C104.35 18.1855 104.557 18.1043 104.332 18.2197C104.186 18.3855 103.869 18.4883 103.714 18.6505C104.229 18.5009 104.482 18.3928 104.75 18.4396L104.761 18.4829C104.509 18.5766 104.442 18.6109 104.314 18.7316C104.648 18.6181 104.494 18.5964 104.725 18.6289C104.684 18.6541 104.64 18.6812 104.599 18.7064C104.574 18.865 104.325 18.9461 104.127 19.1462C104.314 19.139 104.361 19.0687 104.285 19.1985C103.899 19.3265 103.279 19.7104 103.025 19.9718C103.227 19.9069 103.429 19.8402 103.629 19.7753C103.025 20.4765 101.852 20.6459 101.394 21.2984C101.508 21.2696 101.621 21.2426 101.736 21.2137L101.747 21.257C100.453 21.5959 100.332 21.8104 99.7464 22.261C99.4598 22.4809 99.0597 22.4016 98.7316 22.5584L98.7532 22.6449C98.5568 22.6305 98.6667 22.5674 98.5478 22.6954C97.6861 22.8991 97.7871 23.083 97.1292 23.4164C96.2874 23.8436 95.57 23.9698 94.7426 24.3321C94.6831 24.2852 94.6218 24.2384 94.5623 24.1915C93.3997 25.0117 91.197 25.2983 90.4381 25.9995C90.6436 25.949 90.8491 25.8967 91.0528 25.8462C91.0744 25.9328 91.0961 26.0193 91.1177 26.1076C91.2763 26.068 91.4367 26.0283 91.5972 25.9886C91.5521 25.9995 91.5052 26.0121 91.4602 26.0229C91.2691 26.131 91.078 26.241 90.8888 26.3492C91.3124 26.1869 91.6945 25.9472 92.0622 26.104L91.1375 26.4717L91.1483 26.515C91.5521 26.3834 91.9541 26.2536 92.3578 26.122C92.3416 26.1563 92.3272 26.1905 92.311 26.2266C92.2263 26.2789 92.1433 26.3293 92.0586 26.3816C92.2894 26.4104 92.2064 26.3167 92.2281 26.4771C91.8315 26.6376 91.4368 26.7962 91.0402 26.9566C91.1519 27.0972 91.1267 27.0702 91.2998 27.1224L91.3121 27.1164C91.5717 26.9901 91.6216 26.9658 91.7991 27.09C91.8477 27.0936 91.8982 27.0972 91.9469 27.099L91.4115 27.2775C91.4061 27.5677 91.1898 27.665 91.1195 27.8579C90.476 28.094 89.8343 28.3301 89.1908 28.5681C89.3116 28.5681 89.4323 28.5699 89.5549 28.5699C89.782 28.6438 89.9767 28.541 90.2128 28.5915C90.1966 28.6258 90.1822 28.66 90.166 28.6961C89.5351 28.8529 89.8145 28.797 89.5369 29.0836C89.4936 29.1287 88.0552 29.5396 87.792 29.655C87.5379 29.7668 86.9809 30.3364 86.6907 30.4824C85.4127 30.9835 84.1329 31.4864 82.8549 31.9893L82.3556 32.0217C81.2019 32.7554 78.3395 33.9721 76.3711 34.5219C76.4054 34.4678 76.4414 34.4119 76.4757 34.3578C76.391 34.4101 76.3081 34.4606 76.2233 34.5128C76.2576 34.5507 76.29 34.5885 76.3243 34.6264C74.7561 35.0752 73.0184 35.9206 71.8486 36.4758C69.4296 37.624 66.3779 38.738 63.7985 39.7204C63.8778 39.7474 63.9571 39.7726 64.0364 39.7997C64.1391 39.6951 67.865 38.1035 69.1286 37.7971C70.4264 37.4816 71.9153 36.73 73.3068 36.2054C73.7989 36.0216 75.2464 35.5655 75.5059 35.7061C76.1422 35.0987 77.1192 34.8175 78.3593 34.6282C78.3756 34.594 78.39 34.5597 78.4062 34.5237C78.3503 34.4912 78.2926 34.4588 78.2368 34.4281C79.2408 34.0874 80.2448 33.745 81.2488 33.4025L81.1334 33.5232C82.0852 33.0618 88.039 31.2142 88.3346 30.951C88.2859 30.9474 88.2354 30.9438 88.1868 30.942C90.3372 30.0804 93.0626 29.3738 95.4095 28.4563C96.035 28.2112 96.3613 28.2905 96.7777 28.1174C98.0503 27.5857 99.9718 26.7259 101.524 26.4771C103.224 26.2068 104.824 25.1847 106.573 25.1775C106.94 25.0153 108.099 24.5953 108.534 24.5989C108.518 24.6331 108.503 24.6674 108.487 24.7034C108.395 24.7269 108.305 24.7485 108.213 24.7719C108.218 24.8927 108.226 25.0153 108.231 25.136C108.743 25.0135 108.491 25.1613 108.856 25.0261C108.737 25.1541 108.7 25.1505 108.399 25.2316C108.429 25.255 108.458 25.2784 108.489 25.3019C108.716 25.246 108.945 25.1883 109.172 25.1324L109.183 25.1757C109.166 25.2099 109.152 25.2442 109.136 25.2802C108.777 25.3127 108.456 25.3289 108.11 25.5344C108.224 25.5056 108.337 25.4785 108.453 25.4497C108.402 25.5398 108.352 25.6281 108.301 25.7183C108.188 25.7471 108.074 25.7741 107.959 25.803L107.926 25.6732C107.838 25.7111 107.752 25.7471 107.663 25.785C107.728 25.931 107.721 25.8679 107.649 26.0193C107.766 26.0049 107.883 25.9923 108.002 25.9778C107.957 25.9886 107.91 26.0013 107.865 26.0121C107.694 26.1004 107.523 26.1887 107.351 26.2789C107.384 26.3672 107.389 26.2861 107.304 26.3834C107.158 26.3257 107.295 26.3528 107.077 26.3473C107.148 26.4375 107.22 26.5276 107.29 26.6177C108.042 26.1869 109.999 25.7147 111.086 25.5362C111.093 25.3487 112.453 24.8278 112.845 24.7305L112.852 24.7286C113.618 24.5075 114.383 24.2864 115.149 24.0671C116.058 23.9788 121.665 21.6391 122.278 21.7887C122.154 21.8662 122.154 21.8158 122.231 21.8933C122.255 21.8879 122.276 21.8825 122.3 21.8771C122.63 21.266 124.09 21.2912 125.049 20.9632C125.258 20.8334 125.469 20.7054 125.678 20.5756L126.177 20.5432C126.377 20.3467 130.215 19.2345 130.671 19.0579C131.797 18.6235 132.985 18.6145 133.863 18.1728C133.739 18.2972 133.405 18.3711 133.212 18.4721L133.223 18.5153C134.373 18.2341 133.879 18.4144 134.943 18.135C134.788 18.3189 134.698 18.2377 134.849 18.3423C135.282 18.1278 136.926 17.3707 137.551 17.5329C137.072 17.6537 136.927 17.7547 136.774 17.9097C136.805 17.9331 136.834 17.9565 136.864 17.98C137.234 17.888 137.138 17.8448 137.364 17.9475C137.012 17.971 136.538 18.0521 136.522 18.0647C136.495 18.2522 136.48 18.0989 136.291 18.3062C136.412 18.4036 136.338 18.308 136.392 18.4198C135.873 18.4847 135.345 18.6307 134.9 18.8362L134.91 18.8794C135.404 18.7695 135.561 18.7461 135.925 18.582C135.985 18.6289 136.046 18.6758 136.105 18.7226C136.149 18.6109 136.385 18.4522 136.698 18.4829C136.682 18.5171 136.668 18.5514 136.652 18.5874C135.97 18.865 135.289 19.1408 134.607 19.4184C134.265 19.6221 134.045 19.9465 133.29 20.253L133.301 20.2962L134.269 20.1016L134.279 20.1448C133.731 20.28 131.673 21.2155 131.343 21.4733C131.419 21.4859 131.495 21.4967 131.57 21.5093C129.712 21.978 127.632 23.0217 126.604 23.4345C126.851 23.4831 126.835 23.4471 126.921 23.5408C125.589 24.0257 124.259 24.5088 122.927 24.9936C123.026 25.0009 123.124 25.0063 123.223 25.0135C121.802 25.3578 121.467 25.3505 120.499 25.7363L120.51 25.7796C120.741 25.7381 120.973 25.6948 121.204 25.6534C121.159 25.6642 121.112 25.6768 121.067 25.6876C119.299 26.7169 116.119 27.0774 114.172 28.3229C114.172 28.3229 110.919 29.3233 111.571 29.2458C111.151 29.4567 110.888 29.2044 110.545 29.5C110.686 29.4802 110.827 29.4603 110.967 29.4423C110.922 29.4531 110.875 29.4657 110.83 29.4766C110.241 29.8226 109.386 29.9056 108.801 30.0732C108.157 30.2571 107.941 30.5635 107.508 30.7167C106.962 30.8519 106.414 30.9889 105.868 31.1241L105.879 31.1673C106.032 31.1583 106.059 31.1421 105.969 31.2376C105.024 31.4233 103.611 32.0416 102.784 32.4435C102.009 32.8203 100.226 33.2763 99.3715 33.6134C98.865 33.8135 97.5491 34.1956 97.468 34.1325C97.3184 34.2821 97.2427 34.4786 96.839 34.5201C96.6317 34.5399 96.7723 34.4498 96.6335 34.5705C96.6821 34.5741 96.7326 34.5777 96.7813 34.5795C95.0202 35.0031 93.2717 35.7584 91.8621 36.4001C89.1205 37.6475 85.9931 38.4171 83.2586 39.459C81.0812 40.29 78.6496 41.458 76.4649 42.2079L76.4865 42.2944C78.9452 41.6725 81.8671 40.3819 84.3167 39.3346C85.191 39.0552 86.0652 38.7776 86.9394 38.4982C90.1696 37.2437 93.5205 36.036 96.8137 34.7093C101.776 32.7103 105.933 31.5513 110.542 29.7776C112.808 28.9052 114.87 28.404 116.155 27.8308C116.514 27.6704 118.992 26.9242 119.142 26.9963C119.915 26.2933 124.645 25.0495 125.943 24.57C127.277 24.0762 127.868 24.3988 128.598 23.8635C128.526 23.8653 128.454 23.8689 128.382 23.8707C129.054 23.6237 129.009 23.7968 129.692 23.5913C129.681 23.7661 129.569 23.7012 129.883 23.7751C129.906 23.7697 129.928 23.7643 129.952 23.7589C129.914 23.7066 129.878 23.6544 129.84 23.6021C130.283 23.4849 130.182 23.4705 130.638 23.3119C130.658 23.4903 130.527 23.3569 130.682 23.4849L130.797 23.3642C130.851 23.2362 130.743 23.3317 130.912 23.2434C131.26 23.3858 131.668 23.0703 131.653 23.0127C131.996 22.9622 132.154 23.0307 132.585 22.9658C132.515 23.137 132.663 23.0974 132.571 23.2001L132.035 23.3786C132.122 23.4345 132.208 23.4885 132.295 23.5444C132.019 23.7156 132.158 23.6688 132.075 23.8292C132.17 23.8202 132.264 23.813 132.36 23.804C132.318 23.8292 132.275 23.8562 132.234 23.8815C131.846 23.977 131.458 24.0744 131.071 24.1699C131.235 24.2312 131.186 24.2276 131.446 24.215C131.462 24.1807 131.476 24.1465 131.493 24.1104C131.491 24.2023 131.491 24.2961 131.489 24.388C131.787 24.3231 131.823 24.3177 131.988 24.3555C131.585 24.4835 131.408 24.5178 131.132 24.707C131.269 24.7341 131.235 24.6728 131.222 24.7773C131.058 24.8945 130.894 25.0135 130.728 25.1306C130.983 25.082 131.237 25.0351 131.491 24.9864C130.375 25.2712 129.827 25.8462 129.133 26.3095C128.409 26.7944 127.727 26.6159 127.204 27.0197C127.186 27.038 127.169 27.0562 127.151 27.0759L127.147 27.081C127.5 27.0053 127.376 27.0305 127.668 27.1351C127.603 27.1657 127.538 27.1981 127.473 27.2288C127.287 27.2414 125.36 27.9732 124.94 28.1355C124.852 28.4581 124.571 28.5879 123.832 28.642C123.846 28.8132 123.922 28.6762 123.807 28.833C123.244 28.8583 120.742 29.7884 120.202 30.0966L120.212 30.1399L120.759 30.0047C116.252 31.4864 111.319 33.2132 107.052 35.023C104.871 35.9477 103.811 36.0432 102.065 36.8615C101.378 37.1078 100.691 37.3558 100.005 37.6038L99.9988 37.606C99.8204 37.5555 99.8546 37.5249 99.6131 37.5177C99.5193 37.9521 97.7781 38.4099 97.2013 38.6244C95.5682 39.2301 93.8089 39.8934 92.0406 40.6433C90.6148 41.2489 89.5891 41.2615 88.4463 41.9519L88.4572 41.9952C89.8217 41.8474 92.9995 40.5513 94.0811 40.0917C95.6312 39.614 97.1832 39.1364 98.7334 38.6587C99.5518 38.3396 101.852 37.4636 102.645 37.4564C102.557 37.4942 102.47 37.5303 102.382 37.5681C102.963 37.4234 103.542 37.2803 104.123 37.1356C103.776 37.223 103.532 37.3154 103.371 37.46C103.847 37.341 104.253 37.2221 104.624 37.2419C104.655 37.2653 104.684 37.2887 104.714 37.3122C104.556 37.4348 104.62 37.4095 104.383 37.4402C104.364 37.4585 104.347 37.4769 104.329 37.4966L104.325 37.5014L104.336 37.5447C104.765 37.4221 105.194 37.3014 105.625 37.1788C105.659 37.2166 105.691 37.2545 105.725 37.2924L105.736 37.3356C105.578 37.3753 105.417 37.4149 105.257 37.4546C105.194 37.3194 105.251 37.3789 105.03 37.4185C104.894 37.7502 104.604 37.7971 104.375 37.9953C104.534 37.9557 104.694 37.916 104.855 37.8764C104.813 37.9016 104.77 37.9286 104.729 37.9539C104.085 38.19 103.443 38.4262 102.8 38.6641C102.8 38.857 102.935 38.7019 102.706 38.8714C102.74 38.9092 102.773 38.9471 102.807 38.9849C103.058 38.9218 103.308 38.8606 103.559 38.7975L103.57 38.8407C103.117 38.9561 101.071 39.8177 100.806 39.9889L101.306 39.9565C101.289 39.9908 101.275 40.025 101.259 40.0611C100.878 40.1854 100.498 40.3116 100.118 40.436C100.266 40.5369 100.258 40.5117 100.309 40.6198C98.8902 41.0092 98.3423 41.5481 97.1886 42.0871C95.4979 42.8766 93.4484 43.0983 92.3741 43.7436C92.576 43.7671 92.4714 43.7346 92.612 43.8229C90.3859 44.4016 88.7347 45.2668 86.9845 46.004C84.4862 47.0549 81.7337 47.8534 79.3021 48.9728C76.445 50.2886 72.6777 51.5468 69.3557 53.0573C68.705 53.2646 68.056 53.4719 67.4053 53.6792C63.766 55.7035 57.9168 57.8575 53.0806 60.0043C50.1893 61.322 47.298 62.6396 44.4086 63.9573C42.8368 64.781 40.8522 65.8986 38.9919 66.4087C37.4327 66.2068 39.3218 63.2849 39.713 62.5874C42.3374 61.6266 44.1382 60.5505 46.1372 59.5158C48.3633 58.3622 50.2812 57.634 52.136 56.7814C53.0157 56.3776 56.6478 55.0564 56.9578 54.5697C53.2428 56.1451 49.5007 57.7692 45.9569 59.377C43.6551 60.4207 41.1676 61.1778 38.7846 62.3566C37.7518 62.8668 32.6867 64.5846 32.656 64.5701C31.5835 64.0384 32.3802 60.9939 32.9516 60.208C34.7145 59.7484 36.2521 58.948 37.7806 58.3171C42.8566 56.2208 46.276 54.831 50.9049 52.7058C52.7777 51.846 54.5641 51.3558 56.2602 50.5915C62.6322 47.7218 70.0569 44.8594 76.4144 42.3124L76.4036 42.2692C74.7687 42.7306 73.1969 43.7779 71.6575 43.9095C71.7368 43.9365 71.8161 43.9617 71.8954 43.9888C70.2984 44.4628 68.3769 45.2487 66.8718 45.9734C65.8948 46.3231 64.916 46.6746 63.9391 47.0243C60.5106 48.569 57.1074 49.8002 54.0143 51.1953C52.3001 51.9686 50.1262 52.7004 48.4553 53.3602C47.3773 53.7856 44.688 54.8509 43.8858 55.4169C43.5253 55.5214 43.163 55.6278 42.8025 55.7323C40.8179 56.6101 38.8351 57.4862 36.8505 58.364C36.3368 58.5371 35.8231 58.7119 35.3112 58.8849C32.483 60.2801 29.3592 61.4067 26.4697 62.7406L24.1985 63.5355C21.1486 64.8081 17.5526 66.2465 14.7749 67.6741C13.5924 68.2816 11.1968 68.8692 10.5858 68.3447C9.49343 67.5389 10.4632 66.142 10.5461 65.2641C9.899 65.5093 9.36725 65.8049 8.77962 65.749C8.04779 64.4674 7.80265 62.1962 8.71293 60.509C9.30957 59.4041 9.87917 58.8363 10.2974 57.533C10.6669 57.3636 11.0364 57.196 11.4059 57.0265C10.6056 56.1667 11.0112 54.3786 11.5898 53.3836C12.6875 52.9618 14.3693 52.4913 14.9155 51.8659C14.3909 51.1719 12.7128 49.4144 13.322 48.6646C14.0088 47.8192 16.6855 47.3 18.6557 46.4637C22.3978 44.8738 26.1417 43.2822 29.8837 41.6923C29.8513 41.5698 29.8224 41.4544 29.7936 41.3391Z" fill="#D9D9D9"/>
</mask>
<g mask="url(#mask0_472_2612)">
<path fill-rule="evenodd" clip-rule="evenodd" d="M143.287 42.8494L10.4056 75.8545L0 33.9616L132.881 0.956543L143.287 42.8494Z" fill="url(#paint0_linear_472_2612)"/>
</g>
<path d="M307.8 64.9691L306.452 57.8191L304.418 69.2479H310.561L311.438 67.9215L307.8 64.9691Z" fill="#E4D451"/>
<path d="M311.44 67.9214L310.562 69.2478H313.075L311.44 67.9214Z" fill="#BD8C2D"/>
<path d="M314.361 57.7596L307.435 52.2915L306.451 57.8191L307.799 64.9691L314.361 57.7596Z" fill="#E7E06E"/>
<path d="M314.36 57.7595L307.799 64.9691L311.556 67.7428L313.375 69.2479H321.987L320.973 61.5384L314.36 57.7595Z" fill="#E7BE47"/>
<path d="M311.556 67.7427L307.799 64.969L311.437 67.9214L311.556 67.7427Z" fill="#E7BE47"/>
<path d="M313.072 69.2477H313.376L311.557 67.7427L311.438 67.9213L313.072 69.2477Z" fill="#E7BE47"/>
<path d="M321.989 69.248H334.481L320.975 61.5386L321.989 69.248Z" fill="#C0832C"/>
<path d="M322.903 52.1453L307.909 49.6152L307.439 52.2608L314.36 57.7596L334.48 69.2479H344.238L339.782 56.3754H322.154L322.903 52.1453Z" fill="#885825"/>
<path d="M314.362 57.7595L307.441 52.2607L307.436 52.2914L314.362 57.7595Z" fill="#885825"/>
<path d="M355.592 57.4941L356.144 56.3752H339.783L344.239 69.2477H348.649L351.355 66.4289L353.237 62.5273L355.592 57.4941Z" fill="#4A2C13"/>
<path d="M355.63 57.5681L353.237 62.5273L351.465 66.3134L357.081 60.4591L355.63 57.5681Z" fill="#744F23"/>
<path d="M353.236 62.5273L355.629 57.5681L355.591 57.4941L353.236 62.5273Z" fill="#744F23"/>
<path d="M355.654 57.5195L355.631 57.5683L357.082 60.4593L358.652 58.8225L355.654 57.5195Z" fill="#4C3115"/>
<path d="M355.594 57.4941L355.632 57.5681L355.655 57.5194L355.594 57.4941Z" fill="#4C3115"/>
<path d="M358.65 58.8223L360.998 56.3752H356.205L355.652 57.5194L358.65 58.8223Z" fill="#7C5524"/>
<path d="M356.207 56.3752H356.146L355.594 57.4941L355.655 57.5194L356.207 56.3752Z" fill="#7C5524"/>
<path d="M325.744 36.1129L310.695 33.9636L307.91 49.6153L322.905 52.1454L325.744 36.1129Z" fill="#C0832B"/>
<path d="M326.928 29.4321L323.658 19.1799H313.325L310.695 33.9635L325.744 36.1129L326.928 29.4321Z" fill="#DAA641"/>
<path d="M323.656 19.1799L326.926 29.4321L328.742 19.1799H323.656Z" fill="#8D5B25"/>
<path d="M76.3906 60.8652L85.1937 61.1179L87.1553 58.8693L83.1508 55.5361L76.3906 60.8652Z" fill="url(#paint1_linear_472_2612)"/>
<path d="M90.6975 55.426L90.2085 57.7594L87.155 58.8693L85.1934 61.1179L91.7893 58.3189L93.2601 56.3374L90.6975 55.426Z" fill="url(#paint2_linear_472_2612)"/>
<path d="M85.1934 61.1178L87.3517 64.2994L91.7893 58.3188L85.1934 61.1178Z" fill="url(#paint3_linear_472_2612)"/>
<path d="M109.773 57.384L110.966 60.4339L114.325 57.5158L109.773 57.384Z" fill="url(#paint4_linear_472_2612)"/>
<path d="M123.711 67.6435C124.958 66.7394 125.988 65.4274 126.798 63.6968L128.574 59.9413L122.354 57.3499L123.711 67.6435Z" fill="url(#paint5_linear_472_2612)"/>
<path d="M114.325 57.5158L113.199 65.9507C113.67 66.8205 114.262 67.5387 114.973 68.1036C115.939 68.867 117.225 69.2495 118.835 69.2495C120.443 69.2495 121.952 68.7966 123.359 67.8925C123.478 67.8149 123.594 67.73 123.711 67.6452L122.354 57.3516L114.325 57.5158Z" fill="url(#paint6_linear_472_2612)"/>
<path d="M110.967 60.434L112.741 64.9654C112.878 65.3137 113.031 65.6404 113.199 65.9508L114.325 57.5159L110.967 60.434Z" fill="url(#paint7_linear_472_2612)"/>
<path d="M101.722 44.7732C101.989 44.387 102.245 44.0171 102.483 43.6688C103.005 42.9054 103.489 42.1601 103.931 41.4364C104.131 42.1601 104.362 42.9054 104.624 43.6688C104.885 44.4339 105.176 45.2875 105.499 46.2332C105.82 47.1788 106.212 48.2453 106.676 49.431C106.748 49.6187 106.825 49.8172 106.903 50.0139L114.322 57.5176L122.351 57.3534L125.128 41.967L124.986 42.281C123.939 44.535 123.044 46.5454 122.3 48.3139C121.555 50.0843 120.902 51.7734 120.339 53.3813C120.136 52.6974 119.916 51.9936 119.674 51.2699C119.433 50.5463 119.162 49.7522 118.861 48.8878C118.559 48.0234 118.227 47.0579 117.864 45.9914C117.502 44.9266 117.079 43.6886 116.598 42.281L114.483 37.8867L97.7012 40.7092L101.722 44.7732Z" fill="url(#paint8_linear_472_2612)"/>
<path d="M114.487 37.8868L112.982 34.7629L97.1537 35.1455L95.7695 36.8599L97.7041 40.7092L114.487 37.8868Z" fill="url(#paint9_linear_472_2612)"/>
<path d="M128.574 59.9432L129.924 57.0864L122.354 57.3517L128.574 59.9432Z" fill="url(#paint10_linear_472_2612)"/>
<path d="M125.131 41.9651L122.354 57.3515L129.924 57.0862L142.627 30.2188L128.161 35.2393L125.131 41.9651Z" fill="url(#paint11_linear_472_2612)"/>
<path d="M76.3913 60.8653L83.1533 55.5344L72.7207 59.1365L73.2242 63.6968C73.4245 65.5881 74.0886 66.9849 75.2147 67.8908C76.3408 68.7949 77.6889 69.2479 79.2571 69.2479C80.9065 69.2479 82.3539 68.8563 83.6009 68.0713C84.8479 67.2862 85.9325 66.2522 86.8582 64.9637L87.3509 64.2996L85.1926 61.118L76.3913 60.8653Z" fill="url(#paint12_linear_472_2612)"/>
<path d="M85.1934 61.1179L87.3517 64.2995L85.1934 61.1179Z" fill="url(#paint13_linear_472_2612)"/>
<path d="M85.1934 61.1179L87.3517 64.2995L85.1934 61.1179Z" fill="url(#paint14_linear_472_2612)"/>
<path d="M71.1797 45.21L72.7209 59.1364L83.1517 55.5361L71.1797 45.21Z" fill="url(#paint15_linear_472_2612)"/>
<path d="M83.1522 55.536L90.6992 55.4278L93.2617 56.3373L95.366 53.5022C96.5318 51.934 97.5478 50.5661 98.4122 49.4003C99.2766 48.2345 100.042 47.1788 100.704 46.2331C101.065 45.7188 101.402 45.2352 101.722 44.775L97.703 40.7109L92.5976 40.7885L91.4427 42.2196C89.5514 44.8345 88.0337 47.0073 86.8878 48.7362C85.7418 50.4668 84.7258 52.0152 83.8415 53.3813C83.7603 51.7319 83.6611 50.0427 83.5401 48.3139C83.4192 46.585 83.2586 44.5729 83.0583 42.281L82.932 40.9365L79.9345 40.9834L70.8301 42.0301L71.182 45.2099L83.1522 55.536Z" fill="url(#paint16_linear_472_2612)"/>
<path d="M106.904 50.012C107.312 51.0623 107.769 52.2407 108.276 53.5617L109.772 57.3839L114.323 57.5157L106.904 50.012Z" fill="url(#paint17_linear_472_2612)"/>
<path d="M95.7705 36.8599L92.6016 40.7868L97.7051 40.7092L95.7705 36.8599Z" fill="url(#paint18_linear_472_2612)"/>
<path d="M82.9314 40.9366L81.7313 28.2229H69.3027L70.8295 42.0284L79.9339 40.9817L82.9314 40.9366Z" fill="url(#paint19_linear_472_2612)"/>
<path d="M82.9311 40.9365L79.9336 40.9816L82.9311 40.9365Z" fill="url(#paint20_linear_472_2612)"/>
<path d="M82.9311 40.9365L79.9336 40.9816L82.9311 40.9365Z" fill="url(#paint21_linear_472_2612)"/>
<path d="M97.7051 40.7092L92.6016 40.7868L97.7051 40.7092Z" fill="url(#paint22_linear_472_2612)"/>
<path d="M97.7051 40.7092L92.6016 40.7868L97.7051 40.7092Z" fill="url(#paint23_linear_472_2612)"/>
<path d="M143.57 28.2229H131.324L128.16 35.2393L142.626 30.2188L143.57 28.2229Z" fill="url(#paint24_linear_472_2612)"/>
<path d="M128.16 35.2393L142.626 30.2188L128.16 35.2393Z" fill="url(#paint25_linear_472_2612)"/>
<path d="M128.16 35.2393L142.626 30.2188L128.16 35.2393Z" fill="url(#paint26_linear_472_2612)"/>
<path d="M87.1568 58.8693L90.6993 55.426L83.1523 55.5361L87.1568 58.8693Z" fill="url(#paint27_linear_472_2612)"/>
<path d="M90.2097 57.7594L90.6988 55.426L87.1562 58.8693L90.2097 57.7594Z" fill="url(#paint28_linear_472_2612)"/>
<path d="M90.2097 57.7594L90.6988 55.426L87.1562 58.8693L90.2097 57.7594Z" fill="url(#paint29_linear_472_2612)"/>
<path d="M279.52 62.6786L285.294 50.4648L267.201 59.1524L279.52 62.6786Z" fill="url(#paint30_linear_472_2612)"/>
<path d="M262.289 61.2295L263.54 64.4255C264.128 65.9197 264.965 67.0982 266.054 67.9572C267.14 68.8162 268.589 69.2475 270.401 69.2475C271.359 69.2475 272.285 69.1013 273.18 68.8144L267.198 59.1523L262.289 61.2295Z" fill="url(#paint31_linear_472_2612)"/>
<path d="M273.181 68.8163C273.977 68.5619 274.75 68.201 275.495 67.7209C277.079 66.7013 278.37 65.1295 279.366 63L279.518 62.6788L267.197 59.1543L273.181 68.8163Z" fill="url(#paint32_linear_472_2612)"/>
<path d="M271.308 48.8714C271.049 48.0918 270.758 47.2454 270.437 46.3232C270.097 45.3505 269.724 44.2623 269.316 43.0622C268.908 41.864 268.434 40.4708 267.89 38.8845L266.07 33.7539L241.516 40.2578L246.72 47.8337C246.958 47.5125 247.191 47.1985 247.413 46.8989C248.386 45.5869 249.247 44.3977 249.994 43.3329C250.741 42.27 251.409 41.3063 251.997 40.4455C252.585 39.5865 253.128 38.7473 253.627 37.9316C253.852 38.7473 254.112 39.5847 254.408 40.4455C254.702 41.3063 255.031 42.2682 255.393 43.3329C255.756 44.3977 256.196 45.5978 256.718 46.9332C257.238 48.2686 257.839 49.8206 258.517 51.5855L262.292 61.2277L267.203 59.1524L271.308 48.8714Z" fill="url(#paint33_linear_472_2612)"/>
<path d="M266.066 33.7557L263.812 27.407C263.404 26.2755 262.964 25.3804 262.488 24.7235C262.013 24.0684 261.491 23.5577 260.925 23.195C260.358 22.8322 259.712 22.5958 258.988 22.4821C258.263 22.3702 257.471 22.3125 256.612 22.3125C255.751 22.3125 254.959 22.3702 254.235 22.4821C253.509 22.5958 252.797 22.834 252.095 23.195C251.393 23.5577 250.691 24.0774 249.989 24.7578C249.287 25.4363 248.529 26.3206 247.713 27.407L240.26 37.8396L241.509 40.2596L266.066 33.7557Z" fill="url(#paint34_linear_472_2612)"/>
<path d="M238.305 40.572C236.753 42.7448 235.461 44.6089 234.436 46.1555C233.146 48.1027 232.001 49.846 231.005 51.3854C230.913 49.5284 230.801 47.6281 230.666 45.6791C230.576 44.378 230.464 42.9306 230.332 41.3444L216.803 42.6563L219.051 62.9982C219.277 65.1277 220.024 66.6995 221.293 67.7192C222.56 68.7388 224.077 69.2477 225.844 69.2477C227.701 69.2477 229.331 68.8055 230.735 67.9231C232.137 67.0406 233.36 65.8748 234.403 64.4257L243.981 51.5207C244.995 50.1564 245.906 48.9311 246.718 47.8356L241.514 40.2598L238.305 40.572Z" fill="url(#paint35_linear_472_2612)"/>
<path d="M295.835 23.0596L281.735 29.1033L277.327 38.8863C276.148 41.4236 275.141 43.6866 274.304 45.6789C273.465 47.6712 272.73 49.5733 272.097 51.3852C271.869 50.6164 271.622 49.8224 271.35 49.0085C271.335 48.9652 271.319 48.9182 271.305 48.8731L267.197 59.1542L285.291 50.4648L298.248 23.0596H295.835Z" fill="url(#paint36_linear_472_2612)"/>
<path d="M284.461 23.0596L281.738 29.1033L295.836 23.0596H284.461Z" fill="url(#paint37_linear_472_2612)"/>
<path d="M295.836 23.0596L281.738 29.1033L295.836 23.0596Z" fill="url(#paint38_linear_472_2612)"/>
<path d="M295.836 23.0596L281.738 29.1033L295.836 23.0596Z" fill="url(#paint39_linear_472_2612)"/>
<path d="M230.122 38.8863L228.628 23.0596H214.635L216.8 42.6561L230.33 41.3442C230.267 40.5592 230.198 39.7417 230.122 38.8863Z" fill="url(#paint40_linear_472_2612)"/>
<path d="M238.305 40.572L241.512 40.2616L240.263 37.8416L239.564 38.8197C239.124 39.426 238.707 40.0071 238.305 40.572Z" fill="url(#paint41_linear_472_2612)"/>
<path d="M170.503 57.346C168.765 57.346 167.186 57.1168 165.769 56.6603C164.351 56.2037 163.127 55.563 162.099 54.7383C161.07 53.9154 160.269 52.921 159.697 51.7534C159.125 50.5876 158.839 49.2955 158.839 47.8771C158.839 46.049 159.251 44.3671 160.074 42.8349C160.897 41.3028 162.017 39.9655 163.436 38.8214C163.541 38.7366 163.649 38.6572 163.755 38.576L163.429 38.2295L165.385 36.0314L167.319 24.2598C166.237 24.507 165.168 24.7957 164.122 25.135C160.234 26.3928 156.849 28.1542 153.969 30.4172C151.087 32.682 148.8 35.3908 147.107 38.5471C145.415 41.7034 144.568 45.1575 144.568 48.9057C144.568 51.7877 145.14 54.4622 146.283 56.9328C147.425 59.4033 149.038 61.5418 151.119 63.3464C153.2 65.1547 155.716 66.5713 158.666 67.6C161.617 68.6286 164.874 69.1429 168.442 69.1429H175.541L180.241 57.3424H170.503V57.346Z" fill="#DB0000"/>
<path d="M191.497 69.1467L202.68 57.3462H182.648L187.14 69.1467H191.497Z" fill="#AD0E0E"/>
<path d="M165.386 36.0315L163.43 38.2295L163.756 38.576C164.189 38.2458 164.642 37.9354 165.119 37.6503L165.386 36.0315Z" fill="#DB0000"/>
<path d="M181.787 57.3462H180.244L175.545 69.1467H177.088L181.787 57.3462Z" fill="#DB0000"/>
<path d="M186.286 23.2493H178.189L165.646 37.3507C166.504 36.8815 167.422 36.4809 168.409 36.147C170.306 35.5064 172.307 35.187 174.412 35.187H186.618L188.645 25.4744L186.286 23.2493Z" fill="#B23434"/>
<path d="M176.752 23.2493H176.537C173.329 23.2493 170.257 23.5885 167.317 24.2599L165.383 36.0315L176.752 23.2493Z" fill="#DB0000"/>
<path d="M165.648 37.3507L178.19 23.2493H176.756L165.386 36.0315L165.121 37.6503C165.293 37.5474 165.469 37.4482 165.648 37.3507Z" fill="#A7A7A7"/>
<path d="M165.648 37.3507L178.19 23.2493H176.756L165.386 36.0315L165.121 37.6503C165.293 37.5474 165.469 37.4482 165.648 37.3507Z" fill="#DB0000"/>
<path d="M189.111 23.2493H186.287L188.648 25.4726L189.111 23.2493Z" fill="#A7A7A7"/>
<path d="M189.111 23.2493H186.287L188.648 25.4726L189.111 23.2493Z" fill="#DB0000"/>
<path d="M182.648 57.3462H181.787L177.088 69.1467H187.14L182.648 57.3462Z" fill="#A7A7A7"/>
<path d="M182.648 57.3462H181.787L177.088 69.1467H187.14L182.648 57.3462Z" fill="#A80505"/>
<path d="M198.167 34.4435L188.648 25.4727L186.621 35.187H197.467L198.167 34.4435Z" fill="#A7A7A7"/>
<path d="M198.167 34.4435L188.648 25.4727L186.621 35.187H197.467L198.167 34.4435Z" fill="#FF2222"/>
<path d="M198.166 34.4434L208.716 23.2493H189.11L188.646 25.4726L198.166 34.4434Z" fill="#DB0000"/>
<path d="M125.684 80.9436L124.74 82.8836H123.325L122.758 84.0295H124.188L123.258 85.9569H121.843L120.806 88.099H119.27L120.308 85.9569H119.27L118.232 88.099H116.709L117.734 85.9569H116.428L117.357 84.0295H118.664L119.216 82.8836H117.909L118.853 80.9436H120.16L121.062 79.083H122.598L121.695 80.9436H122.733L123.623 79.083H125.159L124.256 80.9436H125.684ZM121.789 82.8836H120.752L120.199 84.0295H121.237L121.789 82.8836Z" fill="white"/>
<path d="M135.143 84.7424C135.008 84.3923 134.889 84.0837 134.786 83.8184C134.683 83.5531 134.595 83.3149 134.522 83.1038C134.45 82.8926 134.385 82.7013 134.328 82.5317C134.27 82.3603 134.217 82.1942 134.172 82.0336C134.073 82.196 133.965 82.3621 133.849 82.5317C133.732 82.7031 133.6 82.8926 133.452 83.1038C133.304 83.3149 133.133 83.5513 132.94 83.8112C132.747 84.0711 132.519 84.3779 132.259 84.728L130.359 87.2887C130.152 87.5757 129.91 87.8085 129.632 87.9835C129.354 88.1586 129.029 88.247 128.661 88.247C128.311 88.247 128.009 88.1459 127.759 87.9438C127.508 87.7417 127.358 87.4295 127.315 87.0072L126.439 79.083H129.215L129.511 82.2231C129.556 82.7356 129.592 83.185 129.619 83.5712C129.646 83.9574 129.668 84.3345 129.686 84.7027C129.883 84.3977 130.11 84.0512 130.366 83.665C130.623 83.2788 130.962 82.7934 131.384 82.2105L133.001 79.9457C133.164 79.7291 133.313 79.5541 133.452 79.4205C133.591 79.2852 133.73 79.1823 133.869 79.1101C134.008 79.0379 134.151 78.991 134.293 78.9693C134.438 78.9477 134.595 78.9351 134.764 78.9351C134.936 78.9351 135.093 78.9459 135.235 78.9693C135.38 78.991 135.508 79.0397 135.62 79.1101C135.732 79.1823 135.834 79.2834 135.93 79.4133C136.024 79.5432 136.112 79.7219 136.194 79.9457L137.002 82.2231C137.11 82.5371 137.204 82.8132 137.285 83.0514C137.367 83.2897 137.441 83.5044 137.507 83.6975C137.574 83.8906 137.635 84.0675 137.69 84.2299C137.744 84.3923 137.792 84.5493 137.838 84.7009C137.964 84.3418 138.11 83.9646 138.276 83.5694C138.442 83.1742 138.642 82.7248 138.875 82.2213L140.29 79.0812H143.026L139.279 87.0054C139.081 87.4277 138.826 87.7399 138.511 87.942C138.197 88.1441 137.859 88.2452 137.5 88.2452C137.141 88.2452 136.854 88.1604 136.637 87.9889C136.423 87.8175 136.255 87.5847 136.139 87.2887L135.143 84.7424Z" fill="white"/>
<path d="M145.317 88.099H142.527L144.132 79.083H146.907L145.317 88.099Z" fill="white"/>
<path d="M160.709 79.083L157.622 81.4272H154.415L153.229 88.099H150.439L151.612 81.4272H146.496L149.618 79.083H160.709Z" fill="white"/>
<path d="M170.047 88.099H167.271L167.892 84.6214H162.514L161.908 88.099H159.105L160.71 79.083H163.5L162.92 82.2772H168.298L168.865 79.083H171.655L170.047 88.099Z" fill="white"/>
<path d="M254.649 84.7424C254.514 84.3923 254.395 84.0837 254.292 83.8184C254.189 83.5531 254.1 83.3149 254.028 83.1038C253.956 82.8926 253.891 82.7013 253.833 82.5317C253.776 82.3603 253.723 82.1942 253.678 82.0336C253.579 82.196 253.471 82.3621 253.355 82.5317C253.238 82.7031 253.106 82.8926 252.958 83.1038C252.81 83.3149 252.639 83.5513 252.446 83.8112C252.253 84.0711 252.025 84.3779 251.765 84.728L249.865 87.2887C249.657 87.5757 249.416 87.8085 249.138 87.9835C248.86 88.1586 248.535 88.247 248.167 88.247C247.817 88.247 247.515 88.1459 247.265 87.9438C247.014 87.7417 246.864 87.4295 246.821 87.0072L245.945 79.083H248.721L249.017 82.2231C249.062 82.7356 249.098 83.185 249.125 83.5712C249.152 83.9574 249.174 84.3345 249.192 84.7027C249.389 84.3977 249.616 84.0512 249.872 83.665C250.128 83.2788 250.468 82.7934 250.89 82.2105L252.507 79.9457C252.669 79.7291 252.819 79.5541 252.958 79.4205C253.097 79.2852 253.236 79.1823 253.377 79.1101C253.516 79.0379 253.658 78.991 253.801 78.9693C253.945 78.9477 254.102 78.9351 254.272 78.9351C254.443 78.9351 254.6 78.9459 254.743 78.9693C254.887 78.991 255.015 79.0397 255.127 79.1101C255.239 79.1823 255.344 79.2834 255.438 79.4133C255.532 79.5432 255.62 79.7219 255.701 79.9457L256.51 82.2231C256.618 82.5371 256.712 82.8132 256.793 83.0514C256.874 83.2897 256.948 83.5044 257.015 83.6975C257.082 83.8906 257.143 84.0675 257.197 84.2299C257.251 84.3923 257.3 84.5493 257.345 84.7009C257.472 84.3418 257.618 83.9646 257.784 83.5694C257.95 83.1742 258.15 82.7248 258.383 82.2213L259.798 79.0812H262.534L258.787 87.0054C258.589 87.4277 258.334 87.7399 258.018 87.942C257.704 88.1441 257.367 88.2452 257.008 88.2452C256.649 88.2452 256.362 88.1604 256.145 87.9889C255.93 87.8175 255.763 87.5847 255.647 87.2887L254.649 84.7424Z" fill="white"/>
<path d="M264.823 88.099H262.033L263.638 79.083H266.413L264.823 88.099Z" fill="white"/>
<path d="M280.215 79.083L277.129 81.4272H273.922L272.736 88.0972H269.946L271.119 81.4272H265.971L269.123 79.083H280.215Z" fill="white"/>
<path d="M289.551 88.099H286.775L287.394 84.6214H282.018L281.412 88.099H278.609L280.214 79.083H283.004L282.424 82.2772H287.8L288.367 79.083H291.157L289.551 88.099Z" fill="white"/>
<path d="M308.318 85.7801L306.095 88.0973H298.131L299.735 79.0813H302.511L301.325 85.7783H308.318V85.7801Z" fill="white"/>
<path d="M324.079 79.083L327.084 85.0672L332.366 79.083H335.668L328.444 87.2364C328.212 87.4962 327.932 87.7308 327.609 87.9366C327.286 88.1423 326.903 88.247 326.463 88.247C326.041 88.247 325.707 88.1495 325.459 87.9564C325.212 87.7633 325.012 87.5233 324.86 87.2364L320.67 79.083H324.079Z" fill="white"/>
<path d="M345.952 85.7801L343.741 88.0973H335.062L336.667 79.0813H347.098L344.874 81.4255H339.04L338.852 82.5029H345.981L344.041 84.5512H338.488L338.271 85.7765H345.952V85.7801Z" fill="white"/>
<path d="M319.339 79.8482C318.227 78.63 316.251 78.63 314.926 79.8482L314.674 80.081L314.463 79.8482C313.351 78.63 311.375 78.63 310.05 79.8482C308.726 81.0663 308.553 83.0424 309.664 84.2605L313.901 88.9038L318.951 84.2605C320.277 83.0424 320.451 81.0663 319.339 79.8482Z" fill="#DD5369"/>
<path d="M314.676 80.081L314.465 79.8482C313.353 78.63 311.377 78.63 310.052 79.8482C308.728 81.0663 308.554 83.0424 309.666 84.2605L313.903 88.9038L314.676 80.081Z" fill="#EC7486"/>
<path d="M225.485 82.6002C225.655 82.6002 225.814 82.4631 225.841 82.2935L225.994 81.2883C226.019 81.1186 225.902 80.9833 225.733 80.9833C223.179 80.9833 220.625 80.9833 218.072 80.9833L217.05 87.6947H215.146L216.444 79.166H226.366C227.279 79.166 227.907 79.9059 227.768 80.8191L227.512 82.4992C227.373 83.4123 226.519 84.1522 225.606 84.1522H222.488L226.759 87.6929H223.531L217.814 82.6002H225.485Z" fill="white"/>
<path d="M205.441 80.9815H214.632L214.908 79.166H205.125C204.212 79.166 203.361 79.9059 203.222 80.8191L202.428 86.0417C202.289 86.9548 202.915 87.6947 203.828 87.6947H213.611L213.887 85.8793H204.696C204.696 85.8793 204.387 85.8793 204.443 85.5129L204.613 84.3995L204.622 84.3381H213.25L213.526 82.5226H204.898L205.077 81.3478C205.133 80.9815 205.441 80.9815 205.441 80.9815Z" fill="white"/>
<path d="M192.418 79.1643L191.929 82.3856H199.541L200.032 79.1643H201.934L200.637 87.693H198.733L199.234 84.3996H191.623L191.121 87.693H189.219L190.516 79.1643H192.418Z" fill="white"/>
<path d="M176.65 86.0398C176.511 86.953 177.139 87.6929 178.052 87.6929H184.19L184.47 85.7168H178.946C178.776 85.7168 178.66 85.5797 178.686 85.4082L179.288 81.447C179.314 81.2774 179.473 81.1384 179.642 81.1384H184.316L184.576 79.1624H179.352C178.439 79.1624 177.585 79.9023 177.446 80.8154L176.65 86.0398Z" fill="#C31229" stroke="#C31229" stroke-width="0.364844" stroke-miterlimit="10"/>
<path d="M234.768 83.1291L239.431 79.1643H242.223L235.628 84.7298L235.177 87.693H232.828L233.277 84.7443L228.359 79.1643H231.157L234.768 83.1291Z" fill="white"/>
<path d="M185.408 81.1401H188.321L188.521 79.1641H185.583" fill="#C31229"/>
<path d="M185.262 87.7398H187.875L188.09 85.6716H185.469" fill="#C31229"/>
<defs>
<linearGradient id="paint0_linear_472_2612" x1="5.20174" y1="54.9067" x2="138.085" y2="21.9065" gradientUnits="userSpaceOnUse">
<stop stop-color="#DF1F86"/>
<stop offset="0.062" stop-color="#DE2970"/>
<stop offset="0.1478" stop-color="#DC345A"/>
<stop offset="0.2407" stop-color="#DB3B4A"/>
<stop offset="0.3448" stop-color="#DA4040"/>
<stop offset="0.4832" stop-color="#DA413D"/>
<stop offset="0.7324" stop-color="#E49941"/>
<stop offset="0.9134" stop-color="#EAD343"/>
<stop offset="1" stop-color="#EDE944"/>
</linearGradient>
<linearGradient id="paint1_linear_472_2612" x1="86.6671" y1="59.2568" x2="68.315" y2="56.4397" gradientUnits="userSpaceOnUse">
<stop stop-color="#00233C"/>
<stop offset="1" stop-color="#00547A"/>
</linearGradient>
<linearGradient id="paint2_linear_472_2612" x1="93.4892" y1="62.149" x2="87.9398" y2="57.6928" gradientUnits="userSpaceOnUse">
<stop stop-color="#104A6C"/>
<stop offset="1" stop-color="#00233E"/>
</linearGradient>
<linearGradient id="paint3_linear_472_2612" x1="103.145" y1="63.4055" x2="76.6452" y2="59.3082" gradientUnits="userSpaceOnUse">
<stop stop-color="#001D37"/>
<stop offset="1" stop-color="#0D3F60"/>
</linearGradient>
<linearGradient id="paint4_linear_472_2612" x1="113.868" y1="57.4418" x2="111.617" y2="69.7058" gradientUnits="userSpaceOnUse">
<stop stop-color="#002643"/>
<stop offset="1" stop-color="#002B49"/>
</linearGradient>
<linearGradient id="paint5_linear_472_2612" x1="133.484" y1="70.838" x2="118.019" y2="56.0038" gradientUnits="userSpaceOnUse">
<stop stop-color="#16C1F4"/>
<stop offset="1" stop-color="#0391C2"/>
</linearGradient>
<linearGradient id="paint6_linear_472_2612" x1="130.554" y1="74.1523" x2="115.049" y2="59.2796" gradientUnits="userSpaceOnUse">
<stop stop-color="#16C1F4"/>
<stop offset="1" stop-color="#0391C2"/>
</linearGradient>
<linearGradient id="paint7_linear_472_2612" x1="113.213" y1="61.5995" x2="85.9623" y2="55.0512" gradientUnits="userSpaceOnUse">
<stop stop-color="#0073A1"/>
<stop offset="1" stop-color="#001D3F"/>
</linearGradient>
<linearGradient id="paint8_linear_472_2612" x1="122.477" y1="42.812" x2="102.973" y2="52.5553" gradientUnits="userSpaceOnUse">
<stop stop-color="#002B46"/>
<stop offset="1" stop-color="#004869"/>
</linearGradient>
<linearGradient id="paint9_linear_472_2612" x1="98.8461" y1="24.0665" x2="108.928" y2="45.4285" gradientUnits="userSpaceOnUse">
<stop stop-color="#16EEFF"/>
<stop offset="1" stop-color="#29B5E2"/>
</linearGradient>
<linearGradient id="paint10_linear_472_2612" x1="135.236" y1="55.2419" x2="134.376" y2="62.5031" gradientUnits="userSpaceOnUse">
<stop stop-color="#042134"/>
<stop offset="1" stop-color="#003452"/>
</linearGradient>
<linearGradient id="paint11_linear_472_2612" x1="129.486" y1="38.785" x2="140.532" y2="57.1909" gradientUnits="userSpaceOnUse">
<stop stop-color="#002C47"/>
<stop offset="1" stop-color="#003858"/>
</linearGradient>
<linearGradient id="paint12_linear_472_2612" x1="100.696" y1="74.3499" x2="66.38" y2="54.256" gradientUnits="userSpaceOnUse">
<stop stop-color="#003251"/>
<stop offset="1" stop-color="#003E62"/>
</linearGradient>
<linearGradient id="paint13_linear_472_2612" x1="102.856" y1="65.2707" x2="76.3568" y2="61.1734" gradientUnits="userSpaceOnUse">
<stop stop-color="#001D37"/>
<stop offset="1" stop-color="#0D3F60"/>
</linearGradient>
<linearGradient id="paint14_linear_472_2612" x1="102.088" y1="71.9709" x2="67.772" y2="51.877" gradientUnits="userSpaceOnUse">
<stop stop-color="#003251"/>
<stop offset="1" stop-color="#003E62"/>
</linearGradient>
<linearGradient id="paint15_linear_472_2612" x1="82.0164" y1="67.0658" x2="68.0634" y2="33.8015" gradientUnits="userSpaceOnUse">
<stop stop-color="#024464"/>
<stop offset="1" stop-color="#4DA9C5"/>
</linearGradient>
<linearGradient id="paint16_linear_472_2612" x1="106.014" y1="46.1723" x2="71.9074" y2="50.4569" gradientUnits="userSpaceOnUse">
<stop stop-color="#004869"/>
<stop offset="1" stop-color="#3080A1"/>
</linearGradient>
<linearGradient id="paint17_linear_472_2612" x1="107.024" y1="54.2157" x2="72.9174" y2="58.5004" gradientUnits="userSpaceOnUse">
<stop stop-color="#004869"/>
<stop offset="1" stop-color="#3080A1"/>
</linearGradient>
<linearGradient id="paint18_linear_472_2612" x1="60.1177" y1="23.5882" x2="94.0586" y2="38.7664" gradientUnits="userSpaceOnUse">
<stop stop-color="#49F8FF"/>
<stop offset="1" stop-color="#29DCFF"/>
</linearGradient>
<linearGradient id="paint19_linear_472_2612" x1="58.5113" y1="27.1784" x2="92.4521" y2="42.3566" gradientUnits="userSpaceOnUse">
<stop stop-color="#49F8FF"/>
<stop offset="1" stop-color="#29DCFF"/>
</linearGradient>
<linearGradient id="paint20_linear_472_2612" x1="104.987" y1="38.0005" x2="70.88" y2="42.2851" gradientUnits="userSpaceOnUse">
<stop stop-color="#004869"/>
<stop offset="1" stop-color="#3080A1"/>
</linearGradient>
<linearGradient id="paint21_linear_472_2612" x1="57.1958" y1="30.1194" x2="91.1367" y2="45.2975" gradientUnits="userSpaceOnUse">
<stop stop-color="#49F8FF"/>
<stop offset="1" stop-color="#29DCFF"/>
</linearGradient>
<linearGradient id="paint22_linear_472_2612" x1="105.175" y1="39.4899" x2="71.0683" y2="43.7745" gradientUnits="userSpaceOnUse">
<stop stop-color="#004869"/>
<stop offset="1" stop-color="#3080A1"/>
</linearGradient>
<linearGradient id="paint23_linear_472_2612" x1="59.5619" y1="24.831" x2="93.5029" y2="40.009" gradientUnits="userSpaceOnUse">
<stop stop-color="#49F8FF"/>
<stop offset="1" stop-color="#29DCFF"/>
</linearGradient>
<linearGradient id="paint24_linear_472_2612" x1="113.629" y1="19.8834" x2="144.069" y2="36.1039" gradientUnits="userSpaceOnUse">
<stop stop-color="#16EEFF"/>
<stop offset="1" stop-color="#29B5E2"/>
</linearGradient>
<linearGradient id="paint25_linear_472_2612" x1="136.498" y1="34.5764" x2="147.544" y2="52.9822" gradientUnits="userSpaceOnUse">
<stop stop-color="#002C47"/>
<stop offset="1" stop-color="#003858"/>
</linearGradient>
<linearGradient id="paint26_linear_472_2612" x1="113.11" y1="20.8568" x2="143.55" y2="37.0774" gradientUnits="userSpaceOnUse">
<stop stop-color="#16EEFF"/>
<stop offset="1" stop-color="#29B5E2"/>
</linearGradient>
<linearGradient id="paint27_linear_472_2612" x1="89.6843" y1="54.3724" x2="87.4273" y2="60.7174" gradientUnits="userSpaceOnUse">
<stop stop-color="#001B36"/>
<stop offset="1" stop-color="#001A38"/>
</linearGradient>
<linearGradient id="paint28_linear_472_2612" x1="94.1436" y1="61.3356" x2="88.5942" y2="56.8793" gradientUnits="userSpaceOnUse">
<stop stop-color="#104A6C"/>
<stop offset="1" stop-color="#00233E"/>
</linearGradient>
<linearGradient id="paint29_linear_472_2612" x1="92.4435" y1="55.3546" x2="90.1866" y2="61.6985" gradientUnits="userSpaceOnUse">
<stop stop-color="#001B36"/>
<stop offset="1" stop-color="#001A38"/>
</linearGradient>
<linearGradient id="paint30_linear_472_2612" x1="270.642" y1="56.7834" x2="279.717" y2="70.0557" gradientUnits="userSpaceOnUse">
<stop stop-color="#002643"/>
<stop offset="1" stop-color="#002B49"/>
</linearGradient>
<linearGradient id="paint31_linear_472_2612" x1="258.262" y1="88.2166" x2="268.86" y2="62.2847" gradientUnits="userSpaceOnUse">
<stop stop-color="#16C1F4"/>
<stop offset="1" stop-color="#0391C2"/>
</linearGradient>
<linearGradient id="paint32_linear_472_2612" x1="271.037" y1="63.6949" x2="300.542" y2="41.0752" gradientUnits="userSpaceOnUse">
<stop stop-color="#0073A1"/>
<stop offset="1" stop-color="#001D3F"/>
</linearGradient>
<linearGradient id="paint33_linear_472_2612" x1="249.752" y1="46.8491" x2="278.643" y2="48.1535" gradientUnits="userSpaceOnUse">
<stop stop-color="#002B46"/>
<stop offset="1" stop-color="#004869"/>
</linearGradient>
<linearGradient id="paint34_linear_472_2612" x1="253.732" y1="11.0735" x2="253.027" y2="42.1303" gradientUnits="userSpaceOnUse">
<stop stop-color="#16EEFF"/>
<stop offset="1" stop-color="#29B5E2"/>
</linearGradient>
<linearGradient id="paint35_linear_472_2612" x1="231.846" y1="44.5999" x2="228.377" y2="72.8284" gradientUnits="userSpaceOnUse">
<stop stop-color="#002C47"/>
<stop offset="1" stop-color="#003858"/>
</linearGradient>
<linearGradient id="paint36_linear_472_2612" x1="272.118" y1="43.9507" x2="316.018" y2="30.6962" gradientUnits="userSpaceOnUse">
<stop stop-color="#004869"/>
<stop offset="1" stop-color="#3080A1"/>
</linearGradient>
<linearGradient id="paint37_linear_472_2612" x1="318.079" y1="-8.01955" x2="285.038" y2="28.7497" gradientUnits="userSpaceOnUse">
<stop stop-color="#49F8FF"/>
<stop offset="1" stop-color="#29DCFF"/>
</linearGradient>
<linearGradient id="paint38_linear_472_2612" x1="268.569" y1="32.193" x2="312.469" y2="18.9385" gradientUnits="userSpaceOnUse">
<stop stop-color="#004869"/>
<stop offset="1" stop-color="#3080A1"/>
</linearGradient>
<linearGradient id="paint39_linear_472_2612" x1="318.828" y1="-7.34658" x2="285.787" y2="29.4227" gradientUnits="userSpaceOnUse">
<stop stop-color="#49F8FF"/>
<stop offset="1" stop-color="#29DCFF"/>
</linearGradient>
<linearGradient id="paint40_linear_472_2612" x1="240.807" y1="8.74112" x2="212.579" y2="44.8904" gradientUnits="userSpaceOnUse">
<stop stop-color="#16EEFF"/>
<stop offset="1" stop-color="#29B5E2"/>
</linearGradient>
<linearGradient id="paint41_linear_472_2612" x1="255.561" y1="20.2624" x2="227.334" y2="56.4118" gradientUnits="userSpaceOnUse">
<stop stop-color="#16EEFF"/>
<stop offset="1" stop-color="#29B5E2"/>
</linearGradient>
</defs>
</svg>
